<?xml version="1.0" encoding="UTF-8" standalone="no"?>
<!DOCTYPE svg PUBLIC "-//W3C//DTD SVG 1.1//EN" "http://www.w3.org/Graphics/SVG/1.1/DTD/svg11.dtd">
<svg width="100%" height="100%" viewBox="0 0 1023 189" version="1.1" xmlns="http://www.w3.org/2000/svg" xmlns:xlink="http://www.w3.org/1999/xlink" xml:space="preserve" xmlns:serif="http://www.serif.com/" style="fill-rule:evenodd;clip-rule:evenodd;stroke-linejoin:round;stroke-miterlimit:2;">
    <g transform="matrix(1,0,0,1,-310.767,-573.419)">
        <g>
            <path d="M326.58,730.152C328.587,728.997 333.06,726.644 334.346,725.988C344.098,721.01 354.012,716.574 364.268,712.731C375.869,708.385 387.517,704.208 399.141,700.033C396.153,702.739 393.833,704.935 392.63,706.755C391.189,708.936 390.64,711.056 390.65,713.028C390.667,716.265 392.092,720.636 399.207,724.045C410.888,729.643 421.866,726.45 430.972,718.398C432.013,717.478 432.936,716.576 433.757,715.687C433.056,717.325 432.54,718.913 432.245,720.417C431.5,724.211 433.115,726.265 433.95,727.268C435.872,729.579 438.644,731.046 442.598,729.788C443.212,729.592 443.981,729.271 444.811,728.696C445.252,728.392 446.771,726.857 447.297,726.319C448.505,725.383 449.739,724.481 450.96,723.561C457.794,718.411 457.617,718.575 464.258,713.306C467.733,710.547 477.035,702.832 486.862,695.988C481.584,702.059 475.729,708.901 472.617,713.412C469.493,717.938 468.841,721.857 469.057,723.488C469.535,727.096 471.552,729.886 476.028,730.663C477.226,730.871 479.333,730.85 481.852,730.063C484.075,729.369 487.149,727.978 489.594,726.797C489.675,726.916 489.757,727.03 489.839,727.139C490.728,728.321 493.868,732.327 499.939,729.516C510.77,724.501 526.176,707.782 535.988,700.173C541.799,695.668 548.257,690.815 554.583,686.291C552.639,688.219 551.209,689.675 550.612,690.405C550.051,691.091 543.84,698.707 542.117,702.656C540.084,707.315 541.574,710.954 543.024,712.731C544.752,714.847 548.028,716.713 552.753,716.743C560.194,716.79 574.589,711.769 575.52,711.501C593.957,706.185 612.187,700.179 630.501,694.453C634.715,693.136 637.067,688.645 635.749,684.431C634.432,680.217 629.941,677.865 625.726,679.182C607.526,684.872 589.409,690.844 571.087,696.127C570.753,696.223 568.452,697.054 565.402,697.996C570.104,693.272 579.941,683.943 586.888,676.28C591.495,671.199 594.876,666.556 595.941,663.848C597.478,659.938 596.612,656.905 595.393,654.958C594.145,652.964 592.145,651.227 588.723,650.803C586.504,650.528 581.215,651.457 572.364,656.058C569.63,657.479 566.942,658.992 564.309,660.594C560.641,662.826 557.015,665.133 553.465,667.548C551.062,669.183 548.588,670.911 546.092,672.693C545.566,672.142 540.125,667.048 534.576,672.104L534.402,672.27L522.593,681.828C518.96,684.802 515.342,687.89 511.695,690.976C513.209,688.716 515.471,685.23 516.694,682.853C517.696,680.906 518.161,679.233 518.281,678.272C518.562,676.037 517.992,674.353 517.361,673.178C516.294,671.189 514.672,669.85 512.469,669.197C508.005,667.874 500.456,669.402 492.156,673.836C487.122,676.526 481.579,680.156 476.281,683.913C487.059,669.225 498.262,655.161 510.341,641.147C517.443,632.907 524.387,624.552 531.978,616.753C535.523,613.111 535.27,613.363 538.911,609.532C539.664,608.739 541.655,606.71 541.916,606.413C546.332,601.386 542.419,596.397 542.131,596.044C542.002,595.886 536.253,589.776 530.244,595.458C520.37,604.797 510.39,614.113 500.689,623.645C491.987,632.195 483.364,640.723 474.475,649.078C467.373,655.753 460.767,663.051 453.332,669.378C451.949,667.37 448.837,664.382 443.462,666.509C415.577,677.542 386.976,687.138 358.655,697.748C355.769,698.83 352.909,699.955 350.072,701.125C352.674,697.896 355.256,694.652 357.835,691.406C377.513,666.637 395.703,641.209 410.996,613.493C415.945,604.524 424.651,593.309 426.86,583.112C427.795,578.797 425.05,574.535 420.735,573.6C416.42,572.665 412.157,575.41 411.223,579.725C409.31,588.554 401.272,597.998 396.987,605.764C382.127,632.694 364.428,657.386 345.307,681.453C337.685,691.047 330.045,700.62 321.978,709.846C320.725,711.279 316.836,714.582 314.432,717.56C312.355,720.134 311.173,722.771 310.87,724.773C310.295,728.567 311.923,730.6 312.899,731.669C314.746,733.693 317.287,734.915 320.779,734.085C321.614,733.887 322.878,733.443 324.218,732.385C324.73,731.98 326.098,730.633 326.58,730.152ZM424.999,698.902C420.289,702.72 415.684,706.673 411.183,710.722C414.516,710.607 417.606,708.859 420.374,706.412C423.398,703.738 424.393,701.368 424.999,698.902ZM452.887,689.127C449.228,691.061 444.529,693.386 442.45,694.405C441.351,697.691 441.102,700.55 440.4,703.296C440.206,704.053 439.994,704.806 439.748,705.557C444.134,699.588 449.717,693.682 452.566,689.586L452.887,689.127Z"/>
        </g>
        <path d="M780.449,593.325C775.857,608.037 761.028,623.301 752.357,635.336C732.997,662.208 708.643,689.81 694.413,720.335C692.547,724.337 694.281,729.1 698.283,730.966C702.285,732.832 707.048,731.097 708.914,727.096C722.73,697.46 746.543,670.777 765.339,644.689C774.883,631.442 790.668,614.285 795.722,598.093C797.038,593.878 794.684,589.388 790.469,588.072C786.254,586.757 781.765,589.111 780.449,593.325Z"/>
        <path d="M771.289,636.769C738.535,638.96 706.314,642.617 675.311,647.548C637.812,653.511 602.023,663.909 566.135,676.322C552.87,680.911 536.032,687.23 523.142,692.182C519.365,693.633 509.784,697.834 508.585,698.783C504.395,702.096 505.313,706.089 505.853,707.714C506.151,708.613 508.497,714.652 516.114,712.906C551.715,704.747 586.7,693.774 622.452,685.977C660.316,677.719 698.664,670.988 737.148,665.631C736.258,667.459 736.462,668.815 736.467,669.086C736.538,673.07 738.67,675.164 741.313,676.297C748.679,679.455 755.866,685.133 759.826,692.175C762.619,697.145 764.719,702.548 767.515,707.397C771.071,713.565 775.627,718.917 782.742,722.416C791.675,726.808 801.016,727.455 810.141,725.762C810.905,726.135 811.756,726.449 812.698,726.7C822.198,729.224 831.821,728.934 841.341,726.518C839.677,731.031 839.324,735.436 840.471,739.299C841.396,742.413 844.368,745.963 850.486,745.798C856.044,745.648 868.729,740.86 869.637,740.436C885.953,732.825 901.228,722.574 916.321,712.462C914.738,715.225 914.193,717.596 914.246,718.973C914.332,721.217 915.151,723.021 916.457,724.489C917.843,726.047 920.324,727.639 924.101,727.606C929.373,727.559 942.493,722.311 943.254,721.933C944.957,721.087 946.762,720.189 948.641,719.245C949.144,721.371 950.478,723.284 953.104,724.772C960.399,728.905 969.927,728.44 980.039,724.374C980.897,724.028 981.762,723.657 982.632,723.262C977.522,729.199 974.63,733.556 973.786,735.871C972.72,738.791 973.081,741.077 973.651,742.628C974.538,745.043 976.202,746.823 978.824,747.786C984.859,750.001 992.322,749.533 999.9,747.402C1008.93,744.862 1018.21,740.051 1024.22,737.587L1025,737.266C1026.25,737.918 1027.82,738.385 1029.78,738.429C1030.3,738.441 1030.91,738.412 1031.59,738.348L1031.11,738.761C1024.89,744.176 1022.37,747.438 1021.59,748.903C1019.65,752.54 1020.53,755.188 1021.17,756.63C1022.06,758.632 1023.54,760.105 1025.67,760.948C1028.51,762.071 1032.28,762.312 1036.4,761.598C1042.62,760.521 1050.04,757.235 1053.62,755.955C1078.2,747.184 1102.45,736.546 1125.36,724.025C1128.19,722.478 1137.16,718.405 1142.45,713.461C1146.24,709.922 1148.37,705.796 1148.54,701.82C1148.64,699.359 1147.72,696.334 1145.09,693.552C1141.16,689.404 1131.06,684.651 1129.58,684.016C1107.4,674.542 1084.38,667.36 1061.08,661.241L1062.99,659.154C1064.03,658.03 1065.08,656.906 1066.12,655.782L1067.41,654.41C1070.71,651.443 1074.04,648.512 1077.39,645.597C1160.13,645.202 1242.93,646.589 1325.33,646.589C1329.75,646.589 1333.33,643.004 1333.33,638.589C1333.33,634.173 1329.75,630.589 1325.33,630.589C1248.99,630.589 1172.3,629.411 1095.61,629.555C1096.37,628.747 1097.42,627.602 1097.66,627.248C1101.46,621.496 1097.15,617.341 1095.7,616.292C1093.9,614.99 1090.26,613.594 1085.67,616.028C1082.31,617.806 1075.52,624.019 1071.46,627.791C1070.8,628.409 1070.13,629.03 1069.48,629.655C1028.22,629.91 986.966,630.628 945.773,632.2L946.568,631.043C946.863,630.631 947.159,630.22 947.454,629.808L947.834,629.307L949.969,627.016C950.783,626.147 951.595,625.276 952.42,624.416C954.112,623.25 956.5,622.087 958.243,620.755C960.474,619.05 962.101,617.109 962.988,615.223C964.723,611.529 963.627,609.013 963.01,607.775C961.662,605.067 959.264,602.979 955.079,603.294C954.187,603.361 952.603,603.668 950.804,604.74C949.065,605.776 945.937,608.356 944.599,609.616C943.509,610.643 942.452,611.703 941.411,612.781C940.811,613.239 940.301,613.661 939.948,614.01C938.711,615.23 937.523,616.628 936.374,618.135C929.439,625.57 927.624,627.735 922.551,633.18C909.672,633.774 896.806,634.461 883.948,635.25C856.418,634.099 828.737,634.115 801.289,635.183C808.696,629.887 816.438,623.958 824.598,619.113C833.059,614.09 841.959,610.187 851.516,610.187C855.932,610.187 859.516,606.603 859.516,602.187C859.516,597.772 855.932,594.187 851.516,594.187C839.107,594.187 827.415,598.833 816.43,605.355C806.55,611.221 797.242,618.594 788.413,624.684C787.611,625.237 772.321,636.024 771.54,636.587L771.289,636.769ZM1116.93,696.089C1116.88,697.236 1116.6,698.376 1116.05,699.5C1115.44,700.759 1114.34,702.198 1112.57,703.414C1111.15,704.384 1106.98,706.265 1106.59,706.442C1098.95,712.223 1091.29,716.948 1082.64,721.22C1080.32,722.368 1077.97,723.481 1075.61,724.555C1072.44,726.768 1069.25,729.057 1065.95,731.48C1063.95,732.95 1061.38,734.902 1058.6,737.063C1078.84,729.364 1098.74,720.343 1117.69,709.985C1119.71,708.881 1125.57,706.37 1129.97,703.068L1130.37,702.743C1127.6,701.126 1123.88,698.981 1123.29,698.73C1121.18,697.828 1119.06,696.947 1116.93,696.089ZM1049.09,674.673C1043.53,680.984 1038.01,687.314 1032.39,693.529C1020.66,706.491 1008.11,718.682 996.488,731.727C1004.59,729.307 1012.76,724.991 1018.15,722.783C1023.06,720.767 1028.12,718.74 1033.22,716.667C1045.4,708.601 1058.11,701.218 1071.14,694.632C1077.66,691.339 1078.05,691.092 1083.96,689.547C1086.7,688.829 1089.25,688.457 1092.06,688.457C1091.97,688.457 1091.73,688.467 1091.73,688.467C1091.73,688.467 1096.54,688.71 1097.11,688.944C1097.92,689.285 1098.62,689.679 1099.21,690.116L1099.89,689.726L1099.96,689.69C1083.28,683.825 1066.24,678.996 1049.09,674.673ZM929.465,654.299C915.109,671.845 895.137,695.444 873.083,711.041L871.848,711.9L871.488,712.308C868.902,715.237 862.991,721.005 858.967,727.156C861.012,726.544 862.658,726.037 862.872,725.937C874.095,720.701 884.796,714.153 895.284,707.277C894.635,706.223 894.249,704.982 894.156,703.536C894.085,702.433 894.12,700.366 895.791,698.035C897.353,695.857 908.642,686.551 915.422,682.624C918.735,680.705 942.139,667.528 954.433,664.63C960.459,663.21 965.042,664.361 967.407,666.157C968.086,666.672 968.622,667.214 969.048,667.765C971.029,666.817 972.769,666.697 973.875,666.783C976.716,667.004 978.69,668.362 980.037,670.312C980.977,671.673 982.13,673.914 981.188,677.423C980.713,679.196 979.161,681.851 975.95,684.127C972.927,686.27 967.559,688.802 963.44,690.634C960.862,692.434 958.377,694.25 956.407,695.809C955.868,696.235 954.419,697.553 952.459,699.377C958.642,696.167 965.118,692.646 971.197,688.963C974.674,685.738 978.261,682.635 981.92,679.644C983.547,678.315 987.722,675.148 990.14,673.954C991.184,673.438 993.637,672.69 994.92,672.543C996.811,672.327 998.242,672.732 999.036,673.039C1002.51,674.385 1003.86,676.957 1004.15,679.705C1004.3,681.138 1004.45,683.817 1001.6,686.512C996.327,691.51 989.131,696.585 981.297,701.422C978.335,704.197 975.465,707.071 972.719,710.055C975.362,709.095 978.084,707.788 980.824,706.282C995.639,698.138 1010.62,684.191 1016.65,678.957C1020.26,675.826 1023.85,672.664 1027.41,669.474C995.842,662.379 962.947,657.392 929.465,654.299ZM884.229,651.259C854.573,653.088 824.964,655.469 795.425,658.548C785.084,659.626 774.74,660.796 764.407,662.064C762.192,663.77 759.987,665.505 757.87,667.309C764.341,671.815 770.035,677.686 773.773,684.335C776.048,688.383 777.878,692.709 779.973,696.808C782.269,701.301 784.806,705.601 789.802,708.058C794.913,710.571 800.199,711.131 805.424,710.469C806.578,706.948 808.393,703.486 809.37,701.853C816.299,690.275 828.088,678.954 841.645,675.732C843.189,675.365 854.792,674.283 857.193,674.75C862.477,675.777 863.66,679.733 863.93,681.678C864.359,684.768 863.331,688.927 860.634,693.088C856.775,699.04 849.461,705.694 846.734,707.797L846.474,707.995C851.445,705.851 856.36,703.047 861.179,699.814C875.384,683.762 889.815,667.961 904.473,652.341C897.742,651.907 890.995,651.547 884.229,651.259ZM837.64,694.582C835.929,695.641 834.3,696.875 832.767,698.235C834.209,697.214 835.609,696.172 836.961,695.129L837.64,694.582ZM1053.11,645.766C1033.62,645.948 1014.12,646.246 994.645,646.702C1009.96,649.322 1025.04,652.389 1039.81,655.919L1041.7,656.376C1043.94,654.27 1046.17,652.16 1048.43,650.069C1049.98,648.624 1051.54,647.19 1053.11,645.766Z"/>
    </g>
</svg>
